<svg width="93" height="60" viewBox="0 0 93 60" fill="none" xmlns="http://www.w3.org/2000/svg">
<path d="M27.0345 58.9289C18.8198 41.0495 10.6913 23.3598 2.56433 5.67165C2.49252 5.68611 2.42072 5.70058 2.34891 5.71504C2.33295 5.99142 2.30263 6.26779 2.30263 6.54417C2.30104 22.6913 2.30104 38.8385 2.30263 54.9857C2.30263 56.5893 2.21327 58.2106 3.29197 59.5813C3.49144 59.8352 3.37655 59.9798 3.08453 59.9814C2.15583 59.9878 1.22553 59.9894 0.29683 59.9749C0.0096026 59.9701 -0.0941185 59.8191 0.0973665 59.5604C1.10266 58.201 1.09468 56.6231 1.09468 55.0355C1.0883 38.1395 1.0883 21.2436 1.09149 4.34761C1.09149 2.99304 0.967027 1.68025 0.126089 0.544213C-0.149968 0.176246 0.0686437 0.0701939 0.400551 0.0701939C2.63135 0.0669802 4.86215 0.0701939 7.09295 0.0701939C7.52539 0.0701939 7.66262 0.391563 7.80783 0.714538C10.3099 6.27743 12.8088 11.8403 15.314 17.4C19.9751 27.7449 24.6378 38.0897 29.3116 48.4298C29.4121 48.6499 29.444 49.0227 29.7664 49.0179C30.1094 49.0147 30.0823 48.6306 30.1765 48.4041C33.4445 40.6189 36.6997 32.8289 39.9661 25.0422C43.3474 16.9838 46.7383 8.92873 50.1276 0.873616C50.3127 0.431734 50.4643 0.0396638 51.1169 0.0460912C58.8178 0.115186 66.5267 -0.180474 74.218 0.193921C79.6418 0.457443 84.5311 2.36798 88.356 6.45579C90.8469 9.11833 92.275 12.3095 92.7809 15.933C93.3665 20.1316 92.7984 24.1423 90.8341 27.9023C88.6368 32.1091 85.1566 34.8777 80.8418 36.642C77.4254 38.0383 73.8462 38.5445 70.1745 38.53C66.7214 38.5172 63.2698 38.5413 59.8167 38.5364C59.3316 38.5364 58.9997 38.5863 59.0061 39.2081C59.0556 44.7678 58.9136 50.3291 59.0875 55.8871C59.129 57.2048 59.3907 58.4806 60.2795 59.5475C60.688 60.0376 60.2061 59.9782 59.9412 59.9798C58.6136 59.9894 57.2859 59.9846 55.9567 59.9862C54.5764 59.9862 53.1945 59.9894 51.8143 59.9862C51.6084 59.9862 51.3483 60.0585 51.2143 59.8721C51.0451 59.6359 51.3228 59.4913 51.4313 59.3338C52.127 58.3135 52.2722 57.1405 52.277 55.9659C52.3073 50.1379 52.3041 44.3098 52.3041 38.4818C52.3041 37.3618 52.2882 37.3618 53.3653 37.3618C58.7827 37.3618 64.2017 37.3442 69.6192 37.3731C72.6223 37.3891 75.4754 36.8557 78.0764 35.2794C81.8646 32.9848 84.1465 29.5429 85.3704 25.3507C86.5464 21.3207 86.6246 17.2216 85.6576 13.1531C84.3539 7.67057 81.4115 3.53776 75.8105 1.79755C74.3808 1.35246 72.8951 1.2223 71.4048 1.21909C65.0044 1.20784 58.604 1.22391 52.2036 1.19981C51.5366 1.19659 51.2095 1.42958 50.9558 2.03536C47.0064 11.4756 43.0442 20.9094 39.0725 30.3399C35.4327 38.9831 31.777 47.6183 28.1292 56.2583C27.7877 57.0666 27.4606 57.8796 27.0313 58.9257L27.0345 58.9289Z" fill="#F7F1DA"/>
</svg>
